<svg width="20" height="20" viewBox="0 0 20 20" fill="none" xmlns="http://www.w3.org/2000/svg">
<path d="M13.3337 1.66602C13.7937 1.66619 14.1666 2.03904 14.1667 2.49902V3.33301C16.4677 3.33318 18.3326 5.1981 18.3328 7.49902V14.166C18.3328 16.4671 16.4678 18.3328 14.1667 18.333H5.83276C3.53188 18.3327 1.66675 16.467 1.66675 14.166V7.49902C1.66692 5.1982 3.53199 3.33336 5.83276 3.33301H5.83374V2.49902C5.83392 2.03894 6.20662 1.66602 6.66675 1.66602C7.12688 1.66602 7.49958 2.03894 7.49976 2.49902V3.33301H12.5007V2.49902C12.5009 2.03894 12.8736 1.66602 13.3337 1.66602ZM3.33276 14.166C3.33276 15.5465 4.45235 16.6657 5.83276 16.666H14.1667C15.5473 16.6658 16.6667 15.5466 16.6667 14.166V9.16602H3.33276V14.166ZM5.83276 4.99902C4.45246 4.99938 3.33294 6.11868 3.33276 7.49902H16.6667C16.6666 6.11857 15.5472 4.9992 14.1667 4.99902V5.83203C14.1667 6.29216 13.7938 6.66584 13.3337 6.66602C12.8735 6.66602 12.5007 6.29227 12.5007 5.83203V4.99902H7.49976V5.83203C7.49976 6.29227 7.12699 6.66602 6.66675 6.66602C6.20651 6.66602 5.83374 6.29227 5.83374 5.83203V4.99902H5.83276Z" fill="#949BA7"/>
</svg>
