<svg width="16" height="16" viewBox="0 0 16 16" fill="none" xmlns="http://www.w3.org/2000/svg">
<path d="M5.73504 9.42578C5.6171 9.42578 5.53761 9.43703 5.49658 9.44828V10.1845C5.5453 10.1958 5.6062 10.1989 5.69017 10.1989C5.99722 10.1989 6.18633 10.0477 6.18633 9.79203C6.18633 9.56328 6.02351 9.42578 5.73504 9.42578ZM7.9703 9.43328C7.84209 9.43328 7.75876 9.44453 7.7094 9.45578V11.087C7.75876 11.0983 7.83825 11.0983 7.91004 11.0983C8.43376 11.102 8.77479 10.8208 8.77479 10.2258C8.77863 9.70703 8.46774 9.43328 7.9703 9.43328Z" fill="#FF2B15"/>
<path d="M9.99282 2.068C9.61931 1.70382 9.11829 1.5 8.59662 1.5H4.28205C3.94203 1.5 3.61594 1.6317 3.3755 1.86612C3.13507 2.10054 3 2.41848 3 2.75V12.75C3 13.0815 3.13507 13.3995 3.3755 13.6339C3.61594 13.8683 3.94203 14 4.28205 14H11.9744C12.3144 14 12.6405 13.8683 12.8809 13.6339C13.1213 13.3995 13.2564 13.0815 13.2564 12.75V6.0933C13.2564 5.55408 13.0387 5.03772 12.6526 4.6613L9.99282 2.068ZM6.52436 10.3688C6.32628 10.55 6.03397 10.6313 5.69359 10.6313C5.62758 10.6325 5.56157 10.6287 5.49615 10.62V11.5112H4.92308V9.05125C5.18171 9.01375 5.44303 8.99661 5.70449 9C6.06154 9 6.31538 9.06625 6.48654 9.19938C6.64936 9.32562 6.75962 9.5325 6.75962 9.77625C6.75897 10.0212 6.67564 10.2281 6.52436 10.3688ZM8.96474 11.2156C8.69551 11.4338 8.2859 11.5375 7.78526 11.5375C7.48526 11.5375 7.27308 11.5188 7.12885 11.5V9.05188C7.38758 9.01519 7.64881 8.99784 7.91026 9C8.39551 9 8.7109 9.085 8.95705 9.26625C9.22308 9.45875 9.38974 9.76562 9.38974 10.2063C9.38974 10.6831 9.2109 11.0125 8.96474 11.2156ZM11.3333 9.48125H10.3513V10.0506H11.2692V10.5094H10.3513V11.5119H9.77051V9.01875H11.3333V9.48125ZM9.41026 5.875H8.76923V2.75L11.9744 5.875H9.41026Z" fill="#FF2B15"/>
</svg>
