<svg width="16" height="16" viewBox="0 0 16 16" fill="none" xmlns="http://www.w3.org/2000/svg">
<path d="M8.66634 5.99967H7.33301V4.66634H8.66634M8.66634 11.333H7.33301V7.33301H8.66634M7.99967 1.33301C7.1242 1.33301 6.25729 1.50545 5.44845 1.84048C4.63961 2.17551 3.90469 2.66657 3.28563 3.28563C2.03539 4.53587 1.33301 6.23156 1.33301 7.99967C1.33301 9.76778 2.03539 11.4635 3.28563 12.7137C3.90469 13.3328 4.63961 13.8238 5.44845 14.1589C6.25729 14.4939 7.1242 14.6663 7.99967 14.6663C9.76778 14.6663 11.4635 13.964 12.7137 12.7137C13.964 11.4635 14.6663 9.76778 14.6663 7.99967C14.6663 7.1242 14.4939 6.25729 14.1589 5.44845C13.8238 4.63961 13.3328 3.90469 12.7137 3.28563C12.0947 2.66657 11.3597 2.17551 10.5509 1.84048C9.74206 1.50545 8.87515 1.33301 7.99967 1.33301Z" fill="#949BA7"/>
</svg>
