<svg width="40" height="40" viewBox="0 0 40 40" fill="none" xmlns="http://www.w3.org/2000/svg">
<rect width="40" height="40" rx="12" fill="#E6F7ED"/>
<path d="M20 30C22.6522 30 25.1957 28.9464 27.0711 27.0711C28.9464 25.1957 30 22.6522 30 20C30 17.3478 28.9464 14.8043 27.0711 12.9289C25.1957 11.0536 22.6522 10 20 10C17.3478 10 14.8043 11.0536 12.9289 12.9289C11.0536 14.8043 10 17.3478 10 20C10 22.6522 11.0536 25.1957 12.9289 27.0711C14.8043 28.9464 17.3478 30 20 30ZM24.4141 18.1641L19.4141 23.1641C19.0469 23.5312 18.4531 23.5312 18.0898 23.1641L15.5898 20.6641C15.2227 20.2969 15.2227 19.7031 15.5898 19.3398C15.957 18.9766 16.5508 18.9727 16.9141 19.3398L18.75 21.1758L23.0859 16.8359C23.4531 16.4688 24.0469 16.4688 24.4102 16.8359C24.7734 17.2031 24.7773 17.7969 24.4102 18.1602L24.4141 18.1641Z" fill="#009856"/>
</svg>
