<svg width="40" height="40" viewBox="0 0 40 40" fill="none" xmlns="http://www.w3.org/2000/svg">
<rect width="40" height="40" rx="12" fill="#E3F4FF"/>
<path d="M17.0813 17.1128L20.1062 14.6626C20.6375 14.2344 21.3 14 21.9812 14C22.55 14 23.1094 14.1625 23.5875 14.4688L25.8562 15.9221L25.9781 16.0002H26V21.9008L21.6562 17.9004L22.3094 17.3941C22.5281 17.2222 22.5688 16.9097 22.3969 16.6909C22.225 16.4721 21.9125 16.4346 21.6938 16.6034L18.5906 19.0161C18.05 19.438 17.2656 19.3286 16.8625 18.7723C16.4813 18.2504 16.5781 17.5191 17.0813 17.1128Z" fill="#007AFF"/>
<path d="M19.2031 19.8068L20.8188 18.5504L25.0125 22.3946C25.6219 22.954 25.6625 23.9041 25.1031 24.5135C24.5938 25.0698 23.7688 25.1542 23.1625 24.7479C23.0969 24.9323 22.9937 25.1104 22.8531 25.2636C22.2937 25.873 21.3438 25.9136 20.7344 25.3542L20.2031 24.8667C20.1438 25.0979 20.0281 25.3198 19.8562 25.5105C19.2969 26.123 18.35 26.1668 17.7375 25.6074L14.8812 23.0009H14V16.0002L16.25 14.5C16.7406 14.175 17.3125 14 17.9 14.0031C18.2969 14.0031 18.6875 14.0813 19.05 14.2344L16.45 16.3377C15.5344 17.0784 15.3594 18.4098 16.0531 19.363C16.7906 20.3756 18.2188 20.5756 19.2031 19.8068Z" fill="#007AFF"/>
<path d="M10 16.5002C10 16.2252 10.225 16.0002 10.5 16.0002H13V23.0009C13 23.554 12.5531 24.001 12 24.001H11C10.4469 24.001 10 23.554 10 23.0009V16.5002Z" fill="#007AFF"/>
<path d="M27 23.0009V16.0002H29.5C29.775 16.0002 30 16.2252 30 16.5002V23.0009C30 23.554 29.5531 24.001 29 24.001H28C27.4469 24.001 27 23.554 27 23.0009Z" fill="#007AFF"/>
</svg>
