<svg width="32" height="26" viewBox="0 0 32 26" fill="none" xmlns="http://www.w3.org/2000/svg">
<path d="M7.2 24.375C3.225 24.375 0 21.0996 0 17.0625C0 13.8734 2.01 11.1617 4.81 10.1613C4.805 10.0242 4.8 9.88711 4.8 9.75C4.8 5.26094 8.38 1.625 12.8 1.625C15.765 1.625 18.35 3.26016 19.735 5.69766C20.495 5.17969 21.415 4.875 22.4 4.875C25.05 4.875 27.2 7.05859 27.2 9.75C27.2 10.3695 27.085 10.9586 26.88 11.507C29.8 12.1063 32 14.7316 32 17.875C32 21.4652 29.135 24.375 25.6 24.375H7.2ZM11.15 13.3555C10.68 13.8328 10.68 14.6047 11.15 15.077C11.62 15.5492 12.38 15.5543 12.845 15.077L14.795 13.0965V19.9062C14.795 20.5816 15.33 21.125 15.995 21.125C16.66 21.125 17.195 20.5816 17.195 19.9062V13.0965L19.145 15.077C19.615 15.5543 20.375 15.5543 20.84 15.077C21.305 14.5996 21.31 13.8277 20.84 13.3555L16.84 9.29297C16.37 8.81563 15.61 8.81563 15.145 9.29297L11.145 13.3555H11.15Z" fill="#B4BBC7"/>
</svg>
