<svg width="40" height="40" viewBox="0 0 40 40" fill="none" xmlns="http://www.w3.org/2000/svg">
<rect width="40" height="40" rx="12" fill="#F3F5F9"/>
<path d="M20 10C22.6522 10 25.1957 11.0536 27.0711 12.9289C28.9464 14.8043 30 17.3478 30 20C30 22.6522 28.9464 25.1957 27.0711 27.0711C25.1957 28.9464 22.6522 30 20 30C17.3478 30 14.8043 28.9464 12.9289 27.0711C11.0536 25.1957 10 22.6522 10 20C10 17.3478 11.0536 14.8043 12.9289 12.9289C14.8043 11.0536 17.3478 10 20 10ZM19.0625 14.6875V20C19.0625 20.3125 19.2188 20.6055 19.4805 20.7812L23.2305 23.2812C23.6602 23.5703 24.2422 23.4531 24.5312 23.0195C24.8203 22.5859 24.7031 22.0078 24.2695 21.7188L20.9375 19.5V14.6875C20.9375 14.168 20.5195 13.75 20 13.75C19.4805 13.75 19.0625 14.168 19.0625 14.6875Z" fill="#949BA7"/>
</svg>
